<?xml version="1.0" encoding="utf-8"?>
<!-- Generator: Adobe Illustrator 21.1.0, SVG Export Plug-In . SVG Version: 6.00 Build 0)  -->
<svg version="1.1" id="Layer_1" xmlns="http://www.w3.org/2000/svg" xmlns:xlink="http://www.w3.org/1999/xlink" x="0px" y="0px"
	 viewBox="0 0 130 100" style="enable-background:new 0 0 130 100;" xml:space="preserve">
<style type="text/css">
	.st0{fill:#FFFFFF;}
	.st1{fill:#50D3DE;}
</style>
<g>
	<path class="st0" d="M73,19.9c-4.3,0-6.9-3.2-6.9-6.8c0-3.6,2.5-6.8,6.9-6.8c4.3,0,6.9,3.2,6.9,6.8C79.9,16.7,77.3,19.9,73,19.9
		 M73,8.9c-2,0-3.5,1.2-3.5,4.1c0,1.9,0.8,4.1,3.5,4.1c2.5,0,3.5-2.1,3.5-4.1C76.5,11,75.5,8.9,73,8.9"/>
	<path class="st0" d="M88.9,10.9c-0.5-1.2-1.6-1.9-2.7-1.9c-1.8,0-3.2,1.2-3.2,4.1c0,1.9,0.8,4.1,3.3,4.1c0.9,0,2.1-0.7,2.7-1.8
		l2.6,1.2c-1.1,2-3,3.3-5.2,3.3c-4.1,0-6.6-3.2-6.6-6.8c0-3.6,2.3-6.8,6.3-6.8c2.5,0,4.2,1.2,5.4,3.4L88.9,10.9z"/>
	<polygon class="st0" points="92,19.5 92,6.5 101.5,6.5 101.5,9 95.2,9 95.2,11.4 101.1,11.4 101.1,13.9 95.2,13.9 95.2,17 
		102.1,17 102.1,19.5 	"/>
	<path class="st0" d="M106.5,6.5h3.3l4.9,13h-3.5l-0.7-2h-4.8l-0.7,2h-3.5L106.5,6.5z M109.8,15.1l-1.6-5.3h0l-1.6,5.3H109.8z"/>
	<polygon class="st0" points="114.3,6.5 117.6,6.5 122.3,14.8 122.3,14.8 122.3,6.5 125.3,6.5 125.3,19.5 122,19.5 117.3,11.3 
		117.3,11.3 117.3,19.5 114.3,19.5 	"/>
	<polygon class="st0" points="66.7,20.4 69.9,20.4 69.9,25.1 74.7,25.1 74.7,20.4 78,20.4 78,33.4 74.7,33.4 74.7,27.9 69.9,27.9 
		69.9,33.4 66.7,33.4 	"/>
	<polygon class="st0" points="79.3,33.4 79.3,20.4 88.8,20.4 88.8,22.9 82.5,22.9 82.5,25.3 88.4,25.3 88.4,27.8 82.5,27.8 
		82.5,30.9 89.4,30.9 89.4,33.4 	"/>
	<path class="st0" d="M93.8,20.4h3.3l4.9,13h-3.5l-0.7-2h-4.8l-0.7,2H89L93.8,20.4z M97.1,28.9l-1.6-5.3h0l-1.6,5.3H97.1z"/>
	<polygon class="st0" points="101.6,20.4 104.8,20.4 104.8,30.7 109.9,30.7 109.9,33.4 101.6,33.4 	"/>
	<polygon class="st0" points="107.8,20.4 117.9,20.4 117.9,22.9 114.5,22.9 114.5,33.4 111.2,33.4 111.2,22.9 107.8,22.9 	"/>
	<polygon class="st0" points="118.3,20.4 121.6,20.4 121.6,25.1 126.4,25.1 126.4,20.4 129.6,20.4 129.6,33.4 126.4,33.4 
		126.4,27.9 121.6,27.9 121.6,33.4 118.3,33.4 	"/>
	<rect x="66.7" y="34.3" class="st0" width="3.2" height="13"/>
	<polygon class="st0" points="71.3,34.3 74.6,34.3 79.3,42.6 79.3,42.6 79.3,34.3 82.3,34.3 82.3,47.3 79,47.3 74.3,39.1 74.3,39.1 
		74.3,47.3 71.3,47.3 	"/>
	<path class="st0" d="M83.6,34.3h5c3.9,0,6.6,1.9,6.6,6.5c0,4.6-2.7,6.5-6.6,6.5h-5V34.3z M86.9,44.6h1.9c2.4,0,3.3-1.7,3.3-3.7
		c0-2.1-0.9-3.7-3.3-3.7h-1.8V44.6z"/>
	<polygon class="st0" points="95.8,47.3 95.8,34.3 105.4,34.3 105.4,36.8 99.1,36.8 99.1,39.2 104.9,39.2 104.9,41.7 99.1,41.7 
		99.1,44.8 105.9,44.8 105.9,47.3 	"/>
	<polygon class="st0" points="110.4,40.3 106.2,34.3 110.1,34.3 112.4,38.3 114.8,34.3 118.7,34.3 114.4,40.3 119.4,47.3 
		115.4,47.3 112.4,42.4 109.4,47.3 105.4,47.3 	"/>
	<path class="st0" d="M28.6,37.9l-1.2,9.2c0,0.1,0,0.2,0.1,0.2h0c0.1,0,0.1-0.1,0.2-0.1l1.2-9.2C28.8,38,28.7,38,28.6,37.9"/>
	<path class="st0" d="M27.7,37.7l-2.4,9c0,0.1,0,0.2,0.1,0.2c0,0,0,0,0,0c0.1,0,0.2-0.1,0.2-0.1l2.4-9
		C27.9,37.8,27.8,37.8,27.7,37.7"/>
	<path class="st0" d="M26.7,37.4l-3.5,8.6c0,0.1,0,0.2,0.1,0.3c0,0,0.1,0,0.1,0c0.1,0,0.2,0,0.2-0.1l3.5-8.6
		C27,37.5,26.9,37.4,26.7,37.4"/>
	<path class="st0" d="M18,42.8c0.1,0,0.2,0,0.3-0.1l6.6-6.6c-0.2-0.2-0.4-0.4-0.6-0.6l-6.6,6.6c-0.1,0.1-0.2,0.3-0.1,0.5l-3.7,3.7
		c-0.1,0.1-0.1,0.1,0,0.2c0,0,0.1,0,0.1,0s0.1,0,0.1,0l3.7-3.7C17.8,42.8,17.9,42.8,18,42.8"/>
	<path class="st0" d="M19.6,44.2c0.1,0,0.2,0,0.3-0.1l5.6-7.4c-0.2-0.1-0.4-0.3-0.6-0.4l-5.6,7.4c-0.1,0.1-0.1,0.3,0,0.4l-3.2,4.2
		c0,0.1,0,0.1,0,0.2c0,0,0,0,0.1,0c0,0,0.1,0,0.1,0L19.6,44.2C19.5,44.2,19.6,44.2,19.6,44.2"/>
	<path class="st0" d="M25.8,36.9l-4.6,8c-0.1,0.1,0,0.2,0,0.3l-2.7,4.6c0,0.1,0,0.1,0,0.2c0,0,0,0,0.1,0c0,0,0.1,0,0.1-0.1l2.7-4.6
		c0,0,0,0,0,0c0.1,0,0.2,0,0.2-0.1l4.6-8C26.1,37.1,26,37,25.8,36.9"/>
	<path class="st0" d="M33.5,37c0,0-0.1,0.1-0.1,0.1l4.6,8c0,0,0,0,0.1,0c0,0,0,0,0,0c0,0,0.1-0.1,0-0.1L33.5,37z"/>
	<path class="st0" d="M32.7,37.4c-0.1,0-0.1,0-0.2,0.1l3.5,8.6c0,0,0,0.1,0.1,0.1c0,0,0,0,0,0c0,0,0.1-0.1,0.1-0.1L32.7,37.4z"/>
	<path class="st0" d="M60.7,28.5c0.6-0.5,0.9-1.3,0.8-2.1c-0.1-0.9-0.7-1.6-1.5-1.9c0.6-0.5,0.8-1.4,0.6-2.2c-0.2-0.9-1-1.5-1.9-1.6
		c0.6-0.6,0.8-1.5,0.4-2.3c-0.4-0.9-1.3-1.4-2.3-1.3c0.6-0.6,0.8-1.6,0.3-2.4c-0.5-0.9-1.8-1.3-2.7-0.7l-0.4,0.2l0.3-0.3
		c0.8-0.6,1-1.8,0.3-2.6c-0.6-0.8-1.8-1-2.6-0.3l-1.8,1.4l1.6-1.6c0.7-0.7,0.7-1.8,0-2.4c-0.7-0.7-1.8-0.7-2.4,0l-3,3l2.6-3.3
		c0.5-0.7,0.4-1.7-0.3-2.2c-0.7-0.5-1.7-0.4-2.3,0.3L42.8,11l3-5.3c0.4-0.7,0.2-1.6-0.5-2c-0.7-0.4-1.6-0.2-2,0.5l-3.2,5.5
		c-0.1,0-0.1,0-0.2,0.1c0-0.1,0-0.1,0-0.2l2.4-5.8c0.3-0.7,0-1.5-0.7-1.8c-0.7-0.3-1.5,0-1.8,0.7l-2.4,5.8c-0.1,0.1-0.2,0.1-0.3,0.2
		c0-0.1-0.1-0.2-0.1-0.4l1.6-6.1c0.2-0.7-0.2-1.3-0.9-1.5c-0.7-0.2-1.3,0.2-1.5,0.9l-1.6,6.1c-0.2,0.1-0.3,0.2-0.4,0.4
		C34.1,8,34,7.8,33.9,7.6l0.8-6.2c0.1-0.6-0.3-1.2-1-1.2c-0.6-0.1-1.2,0.3-1.2,1l-0.8,6.2c-0.2,0.2-0.4,0.4-0.5,0.7
		c-0.1-0.3-0.2-0.5-0.4-0.7V1c0-0.5-0.4-1-1-1c-0.5,0-1,0.4-1,1v6.3c-0.3,0.3-0.5,0.7-0.5,1.1v0.3l0-0.3c-0.1-0.4-0.3-0.8-0.7-1
		l-0.8-6.3c-0.1-0.5-0.5-0.8-1-0.7c-0.5,0.1-0.8,0.5-0.7,1l0.8,6.3c-0.3,0.3-0.4,0.7-0.4,1.1l0.2,1.7l-0.4-1.7
		c-0.1-0.4-0.4-0.7-0.8-0.9l-1.6-6.1c-0.1-0.4-0.5-0.6-0.9-0.5c-0.4,0.1-0.6,0.5-0.5,0.9L23,8.3c-0.3,0.3-0.4,0.7-0.3,1.2l0.8,3
		l-1.2-2.9c-0.2-0.4-0.5-0.7-0.9-0.7L19,3c-0.1-0.3-0.5-0.5-0.8-0.3c-0.3,0.1-0.5,0.5-0.3,0.8l2.4,5.9c-0.2,0.3-0.3,0.8-0.1,1.2
		l1.7,4.2l-2.3-3.9c-0.2-0.4-0.6-0.6-1-0.5l-3.2-5.6c-0.1-0.2-0.4-0.3-0.7-0.2c-0.2,0.1-0.3,0.4-0.2,0.7l3.2,5.6
		c-0.2,0.3-0.3,0.8,0,1.2L20,16c0,0,0,0.1,0,0.1c0,0-0.1,0-0.1,0L17,12.4c-0.3-0.3-0.7-0.5-1.1-0.4L12,6.9c-0.1-0.2-0.4-0.2-0.5-0.1
		c-0.2,0.1-0.2,0.4-0.1,0.5l3.9,5.1c-0.2,0.4-0.2,0.8,0.1,1.1l2.9,3.8c0,0.1,0,0.2,0,0.3c-0.1,0-0.2,0-0.3,0l-3.3-3.3
		c-0.3-0.3-0.7-0.3-1.1-0.2L9,9.5c-0.1-0.1-0.3-0.1-0.4,0c-0.1,0.1-0.1,0.3,0,0.4l4.6,4.6c-0.2,0.3-0.1,0.8,0.2,1.1l3.3,3.3
		c0,0.1,0,0.3,0.1,0.4c-0.1,0-0.3,0-0.4,0l-3.7-2.9c-0.3-0.2-0.7-0.2-1,0l-5.2-4c-0.1-0.1-0.3-0.1-0.3,0c-0.1,0.1-0.1,0.3,0,0.3
		l5.2,4c-0.1,0.3,0,0.7,0.3,0.9l3.7,2.9c0,0.2,0.1,0.4,0.3,0.6c-0.2-0.1-0.4-0.1-0.6,0l-4.1-2.4c-0.3-0.2-0.6-0.1-0.8,0.1l-5.8-3.4
		c-0.1-0.1-0.3,0-0.3,0.1C3.8,15.8,3.9,16,4,16l5.8,3.4c-0.1,0.3,0.1,0.6,0.4,0.8l4.1,2.4c0.1,0.3,0.2,0.6,0.5,0.7l0.2,0.1l-0.2-0.1
		c-0.3-0.1-0.6-0.1-0.9,0.1l-4.4-1.8c-0.3-0.1-0.6,0-0.8,0.2l-6.3-2.6c-0.1,0-0.2,0-0.2,0.1c0,0.1,0,0.2,0.1,0.2l6.3,2.6
		c0,0.3,0.1,0.5,0.4,0.7l4.4,1.8c0.1,0.3,0.3,0.5,0.6,0.7l1.2,0.5l-1.3-0.3c-0.3-0.1-0.6,0-0.9,0.2l-4.6-1.2c-0.2-0.1-0.5,0-0.6,0.2
		l-6.6-1.8c-0.1,0-0.2,0-0.2,0.1c0,0.1,0,0.2,0.1,0.2l6.6,1.8c0,0.2,0.2,0.5,0.4,0.5l4.6,1.2c0.1,0.3,0.3,0.5,0.7,0.6l2.3,0.6
		l-2.3-0.3c-0.3,0-0.6,0.1-0.8,0.3l-4.7-0.6c-0.2,0-0.4,0.1-0.5,0.3l-6.9-0.9c-0.1,0-0.2,0-0.2,0.1c0,0.1,0,0.2,0.1,0.2l6.9,0.9
		c0,0.2,0.2,0.3,0.4,0.4l4.7,0.6c0.1,0.3,0.4,0.5,0.7,0.5l3.4,0.4h-3.4c-0.3,0-0.6,0.2-0.7,0.5H7.5c-0.2,0-0.3,0.1-0.3,0.3H0.1
		c-0.1,0-0.1,0.1-0.1,0.1c0,0.1,0.1,0.1,0.1,0.1h7.1C7.2,30.9,7.4,31,7.5,31h4.8c0.1,0.3,0.4,0.5,0.7,0.5h4.5L13.1,32
		c-0.3,0-0.6,0.3-0.6,0.6l-4.8,0.6c-0.2,0-0.3,0.2-0.2,0.3c0,0.1,0.1,0.2,0.3,0.2c0,0,0,0,0,0l4.8-0.6c0.1,0.2,0.4,0.4,0.7,0.4
		c0,0,0.1,0,0.1,0l5.5-0.7l-5.4,1.4c-0.3,0.1-0.5,0.3-0.5,0.6l-4.7,1.3c-0.1,0-0.2,0.2-0.2,0.3c0,0.1,0.1,0.2,0.2,0.2c0,0,0,0,0.1,0
		l4.7-1.3c0.1,0.2,0.3,0.3,0.6,0.3c0.1,0,0.1,0,0.2,0l6.4-1.7l-6.1,2.5c-0.3,0.1-0.4,0.4-0.4,0.6L9.2,39c-0.1,0-0.1,0.1-0.1,0.2
		c0,0.1,0.1,0.1,0.2,0.1c0,0,0,0,0.1,0l4.6-1.9c0.1,0.1,0.3,0.2,0.5,0.2c0.1,0,0.2,0,0.2,0l7.1-2.9L15,38.5
		c-0.2,0.1-0.3,0.4-0.3,0.6l-4.4,2.5c-0.1,0.1-0.1,0.2-0.1,0.3c0,0.1,0.1,0.1,0.2,0.1c0,0,0.1,0,0.1,0l4.4-2.5
		c0.1,0.1,0.2,0.1,0.4,0.1c0.1,0,0.2,0,0.3-0.1l7.6-4.4l-6.9,5.3c-0.2,0.1-0.2,0.3-0.2,0.5L12,44c-0.1,0-0.1,0.1,0,0.2
		c0,0,0.1,0.1,0.1,0.1c0,0,0.1,0,0.1,0l4-3.1c0.1,0.1,0.2,0.1,0.3,0.1c0.1,0,0.2,0,0.3-0.1l7.4-5.6c-1.1-1.3-1.8-3-1.8-4.9
		c0-4.1,3.3-7.4,7.4-7.4c4.1,0,7.4,3.3,7.4,7.4c0,0.9-0.2,1.7-0.4,2.5h22.7c1.4,0,2.5-1.1,2.5-2.5C61.9,29.7,61.4,29,60.7,28.5"/>
	<path class="st0" d="M30.6,38l1.2,9.2c0,0.1,0.1,0.1,0.1,0.1h0c0.1,0,0.1-0.1,0.1-0.1l-1.2-9.2C30.8,38,30.7,38,30.6,38"/>
	<path class="st0" d="M31.6,37.8l2.4,9c0,0,0.1,0.1,0.1,0.1c0,0,0,0,0,0c0.1,0,0.1-0.1,0.1-0.1l-2.4-9
		C31.7,37.8,31.6,37.8,31.6,37.8"/>
	<path class="st0" d="M29.8,38c0,0-0.1,0-0.1,0v9.3c0,0.1,0.1,0.1,0.1,0.1c0.1,0,0.1-0.1,0.1-0.1V38C29.9,38,29.8,38,29.8,38"/>
	<polygon class="st0" points="118.6,34.3 119.8,34.3 119.8,34.6 119.4,34.6 119.4,35.8 119,35.8 119,34.6 118.6,34.6 	"/>
	<polygon class="st0" points="119.9,34.3 120.5,34.3 120.8,35.4 120.8,35.4 121,34.3 121.6,34.3 121.6,35.8 121.2,35.8 121.2,34.7 
		121.2,34.7 120.9,35.8 120.6,35.8 120.3,34.7 120.3,34.7 120.3,35.8 119.9,35.8 	"/>
</g>
<g>
	<path class="st1" d="M73,69.9c-4.3,0-6.9-3.2-6.9-6.8c0-3.6,2.5-6.8,6.9-6.8c4.3,0,6.9,3.2,6.9,6.8C79.9,66.7,77.3,69.9,73,69.9
		 M73,58.9c-2,0-3.5,1.2-3.5,4.1c0,1.9,0.8,4.1,3.5,4.1c2.5,0,3.5-2.1,3.5-4.1C76.5,61,75.5,58.9,73,58.9"/>
	<path class="st1" d="M88.9,60.9c-0.5-1.2-1.6-1.9-2.7-1.9c-1.8,0-3.2,1.2-3.2,4.1c0,1.9,0.8,4.1,3.3,4.1c0.9,0,2.1-0.7,2.7-1.8
		l2.6,1.2c-1.1,2-3,3.3-5.2,3.3c-4.1,0-6.6-3.2-6.6-6.8c0-3.6,2.3-6.8,6.3-6.8c2.5,0,4.2,1.2,5.4,3.4L88.9,60.9z"/>
	<polygon class="st1" points="92,69.5 92,56.5 101.5,56.5 101.5,59 95.2,59 95.2,61.4 101.1,61.4 101.1,63.9 95.2,63.9 95.2,67 
		102.1,67 102.1,69.5 	"/>
	<path class="st1" d="M106.5,56.5h3.3l4.9,13h-3.5l-0.7-2h-4.8l-0.7,2h-3.5L106.5,56.5z M109.8,65.1l-1.6-5.3h0l-1.6,5.3H109.8z"/>
	<polygon class="st1" points="114.3,56.5 117.6,56.5 122.3,64.8 122.3,64.8 122.3,56.5 125.3,56.5 125.3,69.5 122,69.5 117.3,61.3 
		117.3,61.3 117.3,69.5 114.3,69.5 	"/>
	<polygon class="st1" points="66.7,70.4 69.9,70.4 69.9,75.1 74.7,75.1 74.7,70.4 78,70.4 78,83.4 74.7,83.4 74.7,77.9 69.9,77.9 
		69.9,83.4 66.7,83.4 	"/>
	<polygon class="st1" points="79.3,83.4 79.3,70.4 88.8,70.4 88.8,72.9 82.5,72.9 82.5,75.3 88.4,75.3 88.4,77.8 82.5,77.8 
		82.5,80.9 89.4,80.9 89.4,83.4 	"/>
	<path class="st1" d="M93.8,70.4h3.3l4.9,13h-3.5l-0.7-2h-4.8l-0.7,2H89L93.8,70.4z M97.1,78.9l-1.6-5.3h0l-1.6,5.3H97.1z"/>
	<polygon class="st1" points="101.6,70.4 104.8,70.4 104.8,80.7 109.9,80.7 109.9,83.4 101.6,83.4 	"/>
	<polygon class="st1" points="107.8,70.4 117.9,70.4 117.9,72.9 114.5,72.9 114.5,83.4 111.2,83.4 111.2,72.9 107.8,72.9 	"/>
	<polygon class="st1" points="118.3,70.4 121.6,70.4 121.6,75.1 126.4,75.1 126.4,70.4 129.6,70.4 129.6,83.4 126.4,83.4 
		126.4,77.9 121.6,77.9 121.6,83.4 118.3,83.4 	"/>
	<rect x="66.7" y="84.3" class="st1" width="3.2" height="13"/>
	<polygon class="st1" points="71.3,84.3 74.6,84.3 79.3,92.6 79.3,92.6 79.3,84.3 82.3,84.3 82.3,97.3 79,97.3 74.3,89.1 74.3,89.1 
		74.3,97.3 71.3,97.3 	"/>
	<path class="st1" d="M83.6,84.3h5c3.9,0,6.6,1.9,6.6,6.5c0,4.6-2.7,6.5-6.6,6.5h-5V84.3z M86.9,94.6h1.9c2.4,0,3.3-1.7,3.3-3.7
		c0-2.1-0.9-3.7-3.3-3.7h-1.8V94.6z"/>
	<polygon class="st1" points="95.8,97.3 95.8,84.3 105.4,84.3 105.4,86.8 99.1,86.8 99.1,89.2 104.9,89.2 104.9,91.7 99.1,91.7 
		99.1,94.8 105.9,94.8 105.9,97.3 	"/>
	<polygon class="st1" points="110.4,90.3 106.2,84.3 110.1,84.3 112.4,88.3 114.8,84.3 118.7,84.3 114.4,90.3 119.4,97.3 
		115.4,97.3 112.4,92.4 109.4,97.3 105.4,97.3 	"/>
	<path class="st1" d="M28.6,87.9l-1.2,9.2c0,0.1,0,0.2,0.1,0.2h0c0.1,0,0.1-0.1,0.2-0.1l1.2-9.2C28.8,88,28.7,88,28.6,87.9"/>
	<path class="st1" d="M27.7,87.7l-2.4,9c0,0.1,0,0.2,0.1,0.2c0,0,0,0,0,0c0.1,0,0.2-0.1,0.2-0.1l2.4-9
		C27.9,87.8,27.8,87.8,27.7,87.7"/>
	<path class="st1" d="M26.7,87.4l-3.5,8.6c0,0.1,0,0.2,0.1,0.3c0,0,0.1,0,0.1,0c0.1,0,0.2,0,0.2-0.1l3.5-8.6
		C27,87.5,26.9,87.4,26.7,87.4"/>
	<path class="st1" d="M18,92.8c0.1,0,0.2,0,0.3-0.1l6.6-6.6c-0.2-0.2-0.4-0.4-0.6-0.6l-6.6,6.6c-0.1,0.1-0.2,0.3-0.1,0.5l-3.7,3.7
		c-0.1,0.1-0.1,0.1,0,0.2c0,0,0.1,0,0.1,0s0.1,0,0.1,0l3.7-3.7C17.8,92.8,17.9,92.8,18,92.8"/>
	<path class="st1" d="M19.6,94.2c0.1,0,0.2,0,0.3-0.1l5.6-7.4c-0.2-0.1-0.4-0.3-0.6-0.4l-5.6,7.4c-0.1,0.1-0.1,0.3,0,0.4l-3.2,4.2
		c0,0.1,0,0.1,0,0.2c0,0,0,0,0.1,0c0,0,0.1,0,0.1,0L19.6,94.2C19.5,94.2,19.6,94.2,19.6,94.2"/>
	<path class="st1" d="M25.8,86.9l-4.6,8c-0.1,0.1,0,0.2,0,0.3l-2.7,4.6c0,0.1,0,0.1,0,0.2c0,0,0,0,0.1,0c0,0,0.1,0,0.1-0.1l2.7-4.6
		c0,0,0,0,0,0c0.1,0,0.2,0,0.2-0.1l4.6-8C26.1,87.1,26,87,25.8,86.9"/>
	<path class="st1" d="M33.5,87c0,0-0.1,0.1-0.1,0.1l4.6,8c0,0,0,0,0.1,0c0,0,0,0,0,0c0,0,0.1-0.1,0-0.1L33.5,87z"/>
	<path class="st1" d="M32.7,87.4c-0.1,0-0.1,0-0.2,0.1l3.5,8.6c0,0,0,0.1,0.1,0.1c0,0,0,0,0,0c0,0,0.1-0.1,0.1-0.1L32.7,87.4z"/>
	<path class="st1" d="M60.7,78.5c0.6-0.5,0.9-1.3,0.8-2.1c-0.1-0.9-0.7-1.6-1.5-1.9c0.6-0.5,0.8-1.4,0.6-2.2c-0.2-0.9-1-1.5-1.9-1.6
		c0.6-0.6,0.8-1.5,0.4-2.3c-0.4-0.9-1.3-1.4-2.3-1.3c0.6-0.6,0.8-1.6,0.3-2.4c-0.5-0.9-1.8-1.3-2.7-0.7l-0.4,0.2l0.3-0.3
		c0.8-0.6,1-1.8,0.3-2.6c-0.6-0.8-1.8-1-2.6-0.3l-1.8,1.4l1.6-1.6c0.7-0.7,0.7-1.8,0-2.4c-0.7-0.7-1.8-0.7-2.4,0l-3,3l2.6-3.3
		c0.5-0.7,0.4-1.7-0.3-2.2c-0.7-0.5-1.7-0.4-2.3,0.3L42.8,61l3-5.3c0.4-0.7,0.2-1.6-0.5-2c-0.7-0.4-1.6-0.2-2,0.5l-3.2,5.5
		c-0.1,0-0.1,0-0.2,0.1c0-0.1,0-0.1,0-0.2l2.4-5.8c0.3-0.7,0-1.5-0.7-1.8c-0.7-0.3-1.5,0-1.8,0.7l-2.4,5.8c-0.1,0.1-0.2,0.1-0.3,0.2
		c0-0.1-0.1-0.2-0.1-0.4l1.6-6.1c0.2-0.7-0.2-1.3-0.9-1.5c-0.7-0.2-1.3,0.2-1.5,0.9l-1.6,6.1c-0.2,0.1-0.3,0.2-0.4,0.4
		c-0.1-0.2-0.1-0.4-0.3-0.5l0.8-6.2c0.1-0.6-0.3-1.2-1-1.2c-0.6-0.1-1.2,0.3-1.2,1l-0.8,6.2c-0.2,0.2-0.4,0.4-0.5,0.7
		c-0.1-0.3-0.2-0.5-0.4-0.7V51c0-0.5-0.4-1-1-1c-0.5,0-1,0.4-1,1v6.3c-0.3,0.3-0.5,0.7-0.5,1.1v0.3l0-0.3c-0.1-0.4-0.3-0.8-0.7-1
		l-0.8-6.3c-0.1-0.5-0.5-0.8-1-0.7c-0.5,0.1-0.8,0.5-0.7,1l0.8,6.3c-0.3,0.3-0.4,0.7-0.4,1.1l0.2,1.7l-0.4-1.7
		c-0.1-0.4-0.4-0.7-0.8-0.9l-1.6-6.1c-0.1-0.4-0.5-0.6-0.9-0.5c-0.4,0.1-0.6,0.5-0.5,0.9l1.6,6.1c-0.3,0.3-0.4,0.7-0.3,1.2l0.8,3
		l-1.2-2.9c-0.2-0.4-0.5-0.7-0.9-0.7L19,53c-0.1-0.3-0.5-0.5-0.8-0.3c-0.3,0.1-0.5,0.5-0.3,0.8l2.4,5.9c-0.2,0.3-0.3,0.8-0.1,1.2
		l1.7,4.2l-2.3-3.9c-0.2-0.4-0.6-0.6-1-0.5l-3.2-5.6c-0.1-0.2-0.4-0.3-0.7-0.2c-0.2,0.1-0.3,0.4-0.2,0.7l3.2,5.6
		c-0.2,0.3-0.3,0.8,0,1.2L20,66c0,0,0,0.1,0,0.1c0,0-0.1,0-0.1,0L17,62.4c-0.3-0.3-0.7-0.5-1.1-0.4L12,56.9
		c-0.1-0.2-0.4-0.2-0.5-0.1c-0.2,0.1-0.2,0.4-0.1,0.5l3.9,5.1c-0.2,0.4-0.2,0.8,0.1,1.1l2.9,3.8c0,0.1,0,0.2,0,0.3
		c-0.1,0-0.2,0-0.3,0l-3.3-3.3c-0.3-0.3-0.7-0.3-1.1-0.2L9,59.5c-0.1-0.1-0.3-0.1-0.4,0c-0.1,0.1-0.1,0.3,0,0.4l4.6,4.6
		c-0.2,0.3-0.1,0.8,0.2,1.1l3.3,3.3c0,0.1,0,0.3,0.1,0.4c-0.1,0-0.3,0-0.4,0l-3.7-2.9c-0.3-0.2-0.7-0.2-1,0l-5.2-4
		c-0.1-0.1-0.3-0.1-0.3,0c-0.1,0.1-0.1,0.3,0,0.3l5.2,4c-0.1,0.3,0,0.7,0.3,0.9l3.7,2.9c0,0.2,0.1,0.4,0.3,0.6
		c-0.2-0.1-0.4-0.1-0.6,0l-4.1-2.4c-0.3-0.2-0.6-0.1-0.8,0.1l-5.8-3.4c-0.1-0.1-0.3,0-0.3,0.1C3.8,65.8,3.9,66,4,66l5.8,3.4
		c-0.1,0.3,0.1,0.6,0.4,0.8l4.1,2.4c0.1,0.3,0.2,0.6,0.5,0.7l0.2,0.1l-0.2-0.1c-0.3-0.1-0.6-0.1-0.9,0.1l-4.4-1.8
		c-0.3-0.1-0.6,0-0.8,0.2l-6.3-2.6c-0.1,0-0.2,0-0.2,0.1c0,0.1,0,0.2,0.1,0.2l6.3,2.6c0,0.3,0.1,0.5,0.4,0.7l4.4,1.8
		c0.1,0.3,0.3,0.5,0.6,0.7l1.2,0.5l-1.3-0.3c-0.3-0.1-0.6,0-0.9,0.2l-4.6-1.2c-0.2-0.1-0.5,0-0.6,0.2l-6.6-1.8c-0.1,0-0.2,0-0.2,0.1
		c0,0.1,0,0.2,0.1,0.2l6.6,1.8c0,0.2,0.2,0.5,0.4,0.5l4.6,1.2c0.1,0.3,0.3,0.5,0.7,0.6l2.3,0.6l-2.3-0.3c-0.3,0-0.6,0.1-0.8,0.3
		l-4.7-0.6c-0.2,0-0.4,0.1-0.5,0.3l-6.9-0.9c-0.1,0-0.2,0-0.2,0.1c0,0.1,0,0.2,0.1,0.2l6.9,0.9c0,0.2,0.2,0.3,0.4,0.4l4.7,0.6
		c0.1,0.3,0.4,0.5,0.7,0.5l3.4,0.4h-3.4c-0.3,0-0.6,0.2-0.7,0.5H7.5c-0.2,0-0.3,0.1-0.3,0.3H0.1c-0.1,0-0.1,0.1-0.1,0.1
		c0,0.1,0.1,0.1,0.1,0.1h7.1C7.2,80.9,7.4,81,7.5,81h4.8c0.1,0.3,0.4,0.5,0.7,0.5h4.5L13.1,82c-0.3,0-0.6,0.3-0.6,0.6l-4.8,0.6
		c-0.2,0-0.3,0.2-0.2,0.3c0,0.1,0.1,0.2,0.3,0.2c0,0,0,0,0,0l4.8-0.6c0.1,0.2,0.4,0.4,0.7,0.4c0,0,0.1,0,0.1,0l5.5-0.7l-5.4,1.4
		c-0.3,0.1-0.5,0.3-0.5,0.6l-4.7,1.3c-0.1,0-0.2,0.2-0.2,0.3c0,0.1,0.1,0.2,0.2,0.2c0,0,0,0,0.1,0l4.7-1.3c0.1,0.2,0.3,0.3,0.6,0.3
		c0.1,0,0.1,0,0.2,0l6.4-1.7l-6.1,2.5c-0.3,0.1-0.4,0.4-0.4,0.6L9.2,89c-0.1,0-0.1,0.1-0.1,0.2c0,0.1,0.1,0.1,0.2,0.1c0,0,0,0,0.1,0
		l4.6-1.9c0.1,0.1,0.3,0.2,0.5,0.2c0.1,0,0.2,0,0.2,0l7.1-2.9L15,88.5c-0.2,0.1-0.3,0.4-0.3,0.6l-4.4,2.5c-0.1,0.1-0.1,0.2-0.1,0.3
		c0,0.1,0.1,0.1,0.2,0.1c0,0,0.1,0,0.1,0l4.4-2.5c0.1,0.1,0.2,0.1,0.4,0.1c0.1,0,0.2,0,0.3-0.1l7.6-4.4l-6.9,5.3
		c-0.2,0.1-0.2,0.3-0.2,0.5L12,94c-0.1,0-0.1,0.1,0,0.2c0,0,0.1,0.1,0.1,0.1c0,0,0.1,0,0.1,0l4-3.1c0.1,0.1,0.2,0.1,0.3,0.1
		c0.1,0,0.2,0,0.3-0.1l7.4-5.6c-1.1-1.3-1.8-3-1.8-4.9c0-4.1,3.3-7.4,7.4-7.4c4.1,0,7.4,3.3,7.4,7.4c0,0.9-0.2,1.7-0.4,2.5h22.7
		c1.4,0,2.5-1.1,2.5-2.5C61.9,79.7,61.4,79,60.7,78.5"/>
	<path class="st1" d="M30.6,88l1.2,9.2c0,0.1,0.1,0.1,0.1,0.1h0c0.1,0,0.1-0.1,0.1-0.1l-1.2-9.2C30.8,88,30.7,88,30.6,88"/>
	<path class="st1" d="M31.6,87.8l2.4,9c0,0,0.1,0.1,0.1,0.1c0,0,0,0,0,0c0.1,0,0.1-0.1,0.1-0.1l-2.4-9
		C31.7,87.8,31.6,87.8,31.6,87.8"/>
	<path class="st1" d="M29.8,88c0,0-0.1,0-0.1,0v9.3c0,0.1,0.1,0.1,0.1,0.1c0.1,0,0.1-0.1,0.1-0.1V88C29.9,88,29.8,88,29.8,88"/>
	<polygon class="st1" points="118.6,84.3 119.8,84.3 119.8,84.6 119.4,84.6 119.4,85.8 119,85.8 119,84.6 118.6,84.6 	"/>
	<polygon class="st1" points="119.9,84.3 120.5,84.3 120.8,85.4 120.8,85.4 121,84.3 121.6,84.3 121.6,85.8 121.2,85.8 121.2,84.7 
		121.2,84.7 120.9,85.8 120.6,85.8 120.3,84.7 120.3,84.7 120.3,85.8 119.9,85.8 	"/>
</g>
</svg>
